<svg id="Calque_1" data-name="Calque 1" xmlns="http://www.w3.org/2000/svg" viewBox="38.380001068115234 44.45000076293945 50.79999923706055 40.65999984741211"><defs><style>.cls-1{fill:#fff;stroke:#000;stroke-linecap:round;stroke-width:1.5px;}.cls-1,.cls-3{stroke-miterlimit:10;}.cls-2{fill-rule:evenodd;}.cls-3{stroke:#fff;stroke-width:0.25px;}</style></defs><title>200703_GIVENCHY_ICON_WEB_V4-ART_DOFFRIR</title><polygon class="cls-1" points="43.2 78.67 43.2 45.45 87.18 45.45 87.18 82.11 43.2 82.11 43.2 78.67"></polygon><path class="cls-2" d="M70.28,63.78c0,1.47,1.15,1.87,2.18,1.87a3.09,3.09,0,0,0,1.61-.38v-.72a2.57,2.57,0,0,1-1.62.45c-.88,0-1.37-.41-1.37-1.22s.49-1.22,1.37-1.22a2.57,2.57,0,0,1,1.62.45v-.72a3,3,0,0,0-1.61-.38c-1,0-2.18.39-2.18,1.87"></path><path class="cls-2" d="M47.13,64.25h1.24v.63a3.48,3.48,0,0,1-1,.12c-.88,0-1.37-.41-1.37-1.22s.49-1.22,1.37-1.22A2.51,2.51,0,0,1,49,63v-.72a3,3,0,0,0-1.61-.38c-1,0-2.18.39-2.18,1.87s1.16,1.87,2.18,1.87a3.61,3.61,0,0,0,1.69-.37V63.62H47.13Z"></path><rect x="51.32" y="61.98" width="0.72" height="3.6"></rect><polygon class="cls-2" points="55.87 64.69 55.84 64.69 54.69 61.98 53.86 61.98 55.55 65.58 56.15 65.58 57.85 61.98 57.01 61.98 55.87 64.69"></polygon><polygon class="cls-2" points="62.77 64.96 60.38 64.96 60.38 64.08 62.1 64.08 62.1 63.45 60.38 63.45 60.38 62.6 62.77 62.6 62.77 61.98 59.66 61.98 59.66 65.58 62.77 65.58 62.77 64.96"></polygon><polygon class="cls-2" points="67.86 64.49 67.84 64.49 65.51 61.98 64.88 61.98 64.88 65.58 65.55 65.58 65.55 63.07 65.57 63.07 67.92 65.58 68.53 65.58 68.53 61.98 67.86 61.98 67.86 64.49"></polygon><polygon class="cls-2" points="78.87 63.45 76.79 63.45 76.79 61.98 76.07 61.98 76.07 65.58 76.79 65.58 76.79 64.08 78.87 64.08 78.87 65.58 79.6 65.58 79.6 61.98 78.87 61.98 78.87 63.45"></polygon><polygon class="cls-2" points="84.25 61.98 83.08 63.45 83.04 63.45 81.87 61.98 80.95 61.98 82.7 64.06 82.7 65.58 83.42 65.58 83.42 64.06 85.17 61.98 84.25 61.98"></polygon><polygon class="cls-3" points="62.27 46.73 60.27 49.77 62.27 51.81 51.33 53.81 40.38 58.81 42.38 55.77 40.38 53.73 51.33 51.73 62.27 46.73"></polygon><polygon points="53.18 82.11 49.76 82.11 50.31 52.97 49.76 45.45 53.18 45.45 52.67 52.38 53.18 82.11"></polygon></svg>